<?xml version="1.0" encoding="utf-8"?>
<!-- Generator: Adobe Illustrator 28.1.0, SVG Export Plug-In . SVG Version: 6.00 Build 0)  -->
<svg version="1.1" id="Layer_1" xmlns="http://www.w3.org/2000/svg" xmlns:xlink="http://www.w3.org/1999/xlink" x="0px" y="0px"
	 viewBox="0 0 149.2 172.2" style="enable-background:new 0 0 149.2 172.2;" xml:space="preserve">
<style type="text/css">
	.st0{fill:#FFFFFF;}
	.st1{fill:#C11616;}
	.st2{fill:#D36011;}
	.st3{fill:#BF260D;}
</style>
<polygon points="149.2,129.2 74.6,172.2 0,129.2 0,43.1 74.6,0 149.2,43.1 "/>
<path class="st0" d="M35.5,103.5c-7.1,25.8,8.2,27.9,37,30.3c19.8,1.6,52-17.5,46.5-31.8c-25.1-65.3-9.9-58.6-36.4-61.1
	C54.3,38.2,56.9,26.3,35.5,103.5z"/>
<path class="st1" d="M105,57c-15.3,3.6-19.9-15.5-33.3-12.4c-10,2.3-14.1,15.7-22.6,16.5c-13.9,1.3-24.4-10.7-22-13.2
	c2.4-2.5,23.5,0,25.4-2.3c1.7-1.9-17.6-10.7-15.6-13.2c2.2-2.6,29.6,8.5,29.5,2.8c0-5.3-15.9-6.2-15.5-14.4
	c0.3-6.2,23.5,16.7,31.7,11.4c4.2-2.8-2.6-13.7,0.1-12.6c3,1.2,8.2,13.4,11.4,14.7c2.7,1.1,3.7-9.6,6.1-8.5
	c2.7,1.3-2.3,15.7,1.6,19.1c3.1,2.6,14.9-0.1,16.9,2.4C120,49,111.6,55.4,105,57z"/>
<path class="st2" d="M87.5,59.4c-3.4,3.7-3.6,10.9-0.4,14.8c7.5,9.1,34.1-0.2,34.2-6.6C121.4,61.2,95.5,50.7,87.5,59.4z"/>
<path class="st3" d="M107.2,78c-3.8,0.2-6.8,0.5-9.5,2.4c-3.9,2.8-5.7,9.6-2.5,13.3c1.9,2.2,5.5,3.4,7.9,2.1
	c3.1-1.7,2.9-6.9,4.2-6.9c1,0,0.7,3.3,3.3,5.2c0.2,0.1,2,1.5,3.9,1c3.3-0.7,4.1-8.5,2.1-12.2C115.2,81,114.3,77.7,107.2,78z"/>
<rect x="71.5" y="54.1" width="20.7" height="12.9"/>
</svg>
